<?xml version="1.0" standalone="no"?>
<!DOCTYPE svg PUBLIC "-//W3C//DTD SVG 20010904//EN"
 "http://www.w3.org/TR/2001/REC-SVG-20010904/DTD/svg10.dtd">
<svg version="1.0" xmlns="http://www.w3.org/2000/svg"
 width="241.000000pt" height="187.000000pt" viewBox="0 0 241.000000 187.000000"
 preserveAspectRatio="xMidYMid meet">

<g transform="translate(0.000000,187.000000) scale(0.100000,-0.100000)"
fill="#FF0000" stroke="none">
<path d="M360 1782 c74 -43 159 -91 187 -108 29 -16 53 -32 53 -36 0 -5 -561
-1549 -585 -1610 -7 -17 13 -18 341 -18 l349 0 324 893 c179 490 331 907 338
925 l13 32 -577 0 -578 0 135 -78z"/>
<path d="M1667 1763 c-314 -857 -636 -1747 -633 -1750 1 -2 261 -2 576 -1
l574 3 -183 105 c-101 57 -185 109 -188 115 -2 6 129 374 290 818 l295 807
-348 0 -348 0 -35 -97z"/>
</g>
</svg>
